<svg xmlns="http://www.w3.org/2000/svg" width="512" height="512"><path d="M389.289 65.95c4.573-.091 9.138-.052 13.711.05l3.368.07c3.899.089 7.797.194 11.694.305l3.826.093c14.481.468 14.481.468 18.854 3.9 3.731 4.965 4.356 8.34 4.574 14.445l.128 3.477.118 3.71.127 3.832c.323 10.395.512 20.769.311 31.168l-.054 2.86c-1.844 83.323-20.6 174.895-79.438 237.421a130.09 130.09 0 0 0-5.106 5.86c-3.146 3.745-6.67 6.717-10.402 9.859l-2.656 2.316c-7.686 6.601-15.75 12.325-24.344 17.684l-1.857 1.168c-26.435 16.392-57.226 24.282-88.206 24.145l-2.026-.007c-33.278-.17-64.711-8.979-94.161-24.332l-2.504-1.263-2.197-1.147c-2.041-.78-2.041-.78-3.921.158-2.448 1.47-4.213 3.13-6.222 5.161l-2.407 2.417-2.57 2.61-2.658 2.675c-2.328 2.342-4.65 4.688-6.972 7.037a5779.273 5779.273 0 0 1-9.841 9.929c-1.748 1.76-3.493 3.523-5.235 5.288l-2.388 2.407-2.103 2.129c-3.424 3.212-6.662 3.01-11.181 2.984-4.11-.579-5.764-2.358-8.551-5.359-1.17-2.34-1.338-4.015-1.5-6.625l-.219-2.477c1.896-7.644 10.827-14.142 16.278-19.554l2.391-2.387c2.493-2.488 4.99-4.973 7.487-7.457l5.108-5.094c4.149-4.138 8.3-8.273 12.455-12.406-1.105-3.447-2.25-6.738-3.883-9.969C98.08 354.778 91.09 335.983 87 316l-.496-2.396c-4.473-22.682-4.5-48.032.496-70.604l.536-2.43C94.381 210.59 109.028 184.18 129 161l1.424-1.654c5.16-5.942 10.538-11.314 16.576-16.346l2.79-2.45c65.06-56.919 155.72-72.76 239.499-74.6ZM171 156l-1.836 1.533c-32.395 27.07-55.033 62.674-59.98 105.173C106.4 297.561 113.478 332.606 131 363c5.066-4.242 9.814-8.675 14.472-13.358l2.18-2.18c2.394-2.394 4.785-4.793 7.175-7.192l5.166-5.17c3.7-3.703 7.398-7.407 11.095-11.113 5.347-5.36 10.697-10.716 16.048-16.071 8.685-8.692 17.369-17.386 26.05-26.082l1.573-1.575a730025.143 730025.143 0 0 0 23.707-23.745l1.575-1.578c8.656-8.67 17.315-17.338 25.975-26.005 5.34-5.345 10.679-10.692 16.015-16.04 4.082-4.092 8.166-8.18 12.25-12.267 1.68-1.681 3.357-3.362 5.034-5.045 2.28-2.287 4.564-4.572 6.848-6.855l2.031-2.043c.61-.607 1.219-1.215 1.846-1.842l1.598-1.6c3.237-2.945 6.706-2.562 10.878-2.532 3.456.408 5.17 1.756 7.484 4.293 1.17 2.34 1.338 4.015 1.5 6.625l.219 2.477c-1.8 7.257-10.011 13.333-15.204 18.504l-2.184 2.186a6837.687 6837.687 0 0 1-7.19 7.18l-5.176 5.177c-3.703 3.703-7.408 7.405-11.114 11.106-5.36 5.35-10.715 10.704-16.07 16.058-8.69 8.688-17.383 17.374-26.077 26.059a122109.85 122109.85 0 0 0-25.32 25.3l-1.579 1.577-7.84 7.836C192.313 336.727 170.658 358.365 149 380c15.287 16.14 51.503 22.238 73.028 23.125 47.367 1.122 85.561-13.973 120.128-46.379C401.924 299.031 419.506 206.616 421 127c.204-11.72.1-23.321-1-35-82.147-8.985-184.914 9.818-249 64Z"/></svg>