<?xml version="1.0" encoding="UTF-8"?>
<svg version="1.1" xmlns="http://www.w3.org/2000/svg" width="512" height="512">
<path d="M0 0 C4.57347625 -0.090953 9.13891924 -0.05127798 13.71142578 0.05029297 C14.82291992 0.07349609 15.93441406 0.09669922 17.07958984 0.12060547 C20.9781649 0.20886752 24.87592896 0.31450401 28.77392578 0.42529297 C30.03648193 0.45606934 31.29903809 0.4868457 32.59985352 0.51855469 C47.08071737 0.98583569 47.08071737 0.98583569 51.45361328 4.41748047 C55.18469454 9.38367829 55.80944927 12.75767482 56.02783203 18.86279297 C56.0698877 20.01021973 56.11194336 21.15764648 56.15527344 22.33984375 C56.19442871 23.56429199 56.23358398 24.78874023 56.27392578 26.05029297 C56.33652588 27.94690674 56.33652588 27.94690674 56.40039062 29.88183594 C56.72356537 40.27750993 56.91238509 50.65113647 56.71142578 61.05029297 C56.68459717 62.46616699 56.68459717 62.46616699 56.65722656 63.91064453 C54.81308721 147.23343738 36.05733632 238.80508655 -22.78076172 301.33154297 C-24.5548337 303.25483596 -26.23296814 305.17064577 -27.88623047 307.19091797 C-31.03303401 310.9363817 -34.55564766 313.90841312 -38.28857422 317.05029297 C-39.16513672 317.81470703 -40.04169922 318.57912109 -40.94482422 319.36669922 C-48.63041605 325.96763091 -56.69446523 331.69089907 -65.28857422 337.05029297 C-66.20799805 337.6284375 -66.20799805 337.6284375 -67.14599609 338.21826172 C-93.58054318 354.61047822 -124.3719997 362.50067034 -155.35107422 362.36279297 C-156.01977539 362.36063782 -156.68847656 362.35848267 -157.37744141 362.35626221 C-190.65542048 362.18565142 -222.0887187 353.37769267 -251.5390625 338.02392578 C-252.77825439 337.3988916 -252.77825439 337.3988916 -254.04248047 336.76123047 C-254.76765869 336.38272949 -255.49283691 336.00422852 -256.23999023 335.61425781 C-258.28059749 334.8340946 -258.28059749 334.8340946 -260.16072083 335.77235413 C-262.60857564 337.24247832 -264.37391513 338.90291764 -266.3828125 340.93334961 C-267.57392136 342.1295266 -267.57392136 342.1295266 -268.78909302 343.34986877 C-269.63712494 344.21136032 -270.48515686 345.07285187 -271.35888672 345.96044922 C-272.23632538 346.84308945 -273.11376404 347.72572968 -274.01779175 348.63511658 C-276.34510118 350.97722136 -278.66828689 353.32330981 -280.98913574 355.67181396 C-284.26526737 358.98598791 -287.5466414 362.29494244 -290.83078003 365.60118103 C-292.57858673 367.36128151 -294.32371397 369.12404742 -296.06594849 370.8896637 C-296.85371674 371.68396286 -297.64148499 372.47826202 -298.453125 373.29663086 C-299.49425949 374.35014488 -299.49425949 374.35014488 -300.556427 375.42494202 C-303.98021626 378.63763611 -307.21861953 378.43582816 -311.73779297 378.40966797 C-315.84725926 377.83069263 -317.50206999 376.05114367 -320.28857422 373.05029297 C-321.45864278 370.71015585 -321.62693828 369.03571344 -321.78857422 366.42529297 C-321.89685547 365.19939453 -321.89685547 365.19939453 -322.00732422 363.94873047 C-320.11158298 356.30394787 -311.18008882 349.80671148 -305.72998047 344.39404297 C-304.54625099 343.21243591 -304.54625099 343.21243591 -303.33860779 342.00695801 C-300.84512409 339.51902195 -298.34816637 337.03460673 -295.85107422 334.55029297 C-294.14836835 332.85260887 -292.44589215 331.15469439 -290.74365234 329.45654297 C-286.5946101 325.31846017 -282.44271845 321.18325362 -278.28857422 317.05029297 C-279.39365057 313.60358001 -280.53838779 310.31253013 -282.17138672 307.08154297 C-291.20961905 288.82845516 -298.19928523 270.03312665 -302.28857422 250.05029297 C-302.53414062 248.8642749 -302.53414062 248.8642749 -302.78466797 247.65429688 C-307.25730082 224.97231892 -307.28423951 199.62258333 -302.28857422 177.05029297 C-302.11165039 176.24849609 -301.93472656 175.44669922 -301.75244141 174.62060547 C-294.90762896 144.64056337 -280.26043998 118.23046537 -260.28857422 95.05029297 C-259.8185498 94.504375 -259.34852539 93.95845703 -258.86425781 93.39599609 C-253.70394431 87.45461155 -248.32675878 82.08211343 -242.28857422 77.05029297 C-241.36818359 76.24205078 -240.44779297 75.43380859 -239.49951172 74.60107422 C-174.43801409 17.68131592 -83.77772669 1.8410723 0 0 Z M-218.28857422 90.05029297 C-218.89459473 90.55625 -219.50061523 91.06220703 -220.125 91.58349609 C-252.51943152 118.65293046 -275.15726195 154.25745834 -280.10546875 196.7565918 C-282.88787427 231.6108583 -275.80911626 266.65675021 -258.28857422 297.05029297 C-253.22297164 292.80792123 -248.47448971 288.37513736 -243.8165741 283.69181824 C-242.73778684 282.61325427 -242.73778684 282.61325427 -241.6372059 281.51290113 C-239.24281569 279.11781985 -236.85201269 276.71919035 -234.46118164 274.32055664 C-232.7395009 272.59695562 -231.01759152 270.87358296 -229.29547119 269.15042114 C-225.59564766 265.44744241 -221.89732387 261.74297284 -218.20030785 258.03719139 C-212.85345624 252.67775571 -207.50334112 247.32158724 -202.15234236 241.96629254 C-193.46723236 233.27412676 -184.78399424 224.58009378 -176.10229492 215.88452148 C-175.58342047 215.36481922 -175.06454601 214.84511695 -174.52994809 214.30966613 C-170.84527492 210.61909021 -167.1606683 206.92844786 -163.47607422 203.23779297 C-159.25843087 199.01321634 -155.04075342 194.78867376 -150.82299805 190.56420898 C-150.30324369 190.0436265 -149.78348934 189.52304402 -149.24798485 188.98668631 C-140.59136781 180.31639852 -131.93279836 171.64806305 -123.27282602 162.98112661 C-117.93234293 157.6361577 -112.59364859 152.28941384 -107.25723056 146.94038633 C-103.17580655 142.84956561 -99.09187021 138.76126076 -95.00698853 134.67389297 C-93.32826752 132.9932922 -91.65041496 131.31182347 -89.9734745 129.62944603 C-87.69314796 127.34195629 -85.40980556 125.05752096 -83.12565613 122.77384949 C-82.4553407 122.0999391 -81.78502527 121.4260287 -81.09439725 120.73169678 C-80.48513782 120.1238117 -79.87587839 119.51592662 -79.24815655 118.88962078 C-78.72110203 118.36164447 -78.19404752 117.83366817 -77.65102166 117.28969258 C-74.41370754 114.34475266 -70.94434775 114.72718406 -66.77294922 114.75732422 C-63.31658587 115.16491424 -61.60193552 116.51305799 -59.28857422 119.05029297 C-58.11850566 121.39043008 -57.95021016 123.06487249 -57.78857422 125.67529297 C-57.71638672 126.49255859 -57.64419922 127.30982422 -57.56982422 128.15185547 C-59.36943526 135.40898261 -67.58083412 141.48570877 -72.77403259 146.65600586 C-73.49463523 147.37746292 -74.21523787 148.09891998 -74.95767695 148.84223938 C-77.35198856 151.23818674 -79.74983565 153.63056294 -82.14770508 156.02294922 C-83.8730685 157.74803033 -85.59821128 159.47333214 -87.32315063 161.19883728 C-91.02660601 164.90251973 -94.73158117 168.60467446 -98.43797112 172.30541992 C-103.79666983 177.65596319 -109.15257815 183.00929261 -114.50782735 188.36328816 C-123.1981667 197.05144333 -131.89073303 205.7373668 -140.5847168 214.421875 C-149.02599815 222.85396581 -157.46621998 231.28711485 -165.9050293 239.72167969 C-166.42591446 240.24230213 -166.94679962 240.76292456 -167.48346918 241.29932344 C-170.09680445 243.91135359 -172.710119 246.52340446 -175.32342327 249.13546562 C-196.97526444 270.77695392 -218.63076421 292.4147779 -240.28857422 314.05029297 C-225.00142478 330.19093983 -188.78534239 336.28823149 -167.26049805 337.17504883 C-119.89367199 338.2972535 -81.69938457 323.20265411 -47.13232422 290.79638672 C12.63538136 233.08114356 30.21687323 140.66551145 31.71142578 61.05029297 C31.91585471 49.33036253 31.81062909 37.72932808 30.71142578 26.05029297 C-51.43522095 17.06550348 -154.20293024 35.86828721 -218.28857422 90.05029297 Z " fill="#000000" transform="translate(389.28857421875,65.94970703125)"/>
</svg>
